<?xml version="1.0" encoding="UTF-8" standalone="no"?>
<!DOCTYPE svg PUBLIC "-//W3C//DTD SVG 1.1//EN"
"http://www.w3.org/Graphics/SVG/1.1/DTD/svg11.dtd">
<svg viewBox="0 0 3640 2572" version="1.1" xmlns="http://www.w3.org/2000/svg" xmlns:xlink="http://www.w3.org/1999/xlink">
<defs>
<clipPath id="c0"><path d="M138.8,2004.8V819.7H1153.1V2004.8Z"/></clipPath>
<clipPath id="c1"><path d="M2526.5,2004.8V819.7h988.9V2004.8Z"/></clipPath>
<clipPath id="c2"><path d="M3095.6,801.4V663.8h331V801.4Z"/></clipPath>
<clipPath id="c3"><path d="M201.6,2439.6V2095.8H889.1v343.8Z"/></clipPath>
<style type="text/css"><![CDATA[
.g0{
fill: #FFFFFF;
}
.g1{
fill-opacity: 0;
}
.g2{
fill: #EEEEEE;
}
.g3{
fill: none;
stroke: #595959;
stroke-width: 1.145;
stroke-linecap: butt;
stroke-linejoin: round;
stroke-miterlimit: 8;
}
.g4{
}
.g5{
fill: #010000;
fill-opacity: 0;
}
.g6{
fill: #0097A7;
}
]]></style>
</defs>
<path fill-rule="evenodd" d="M0,0H3641V2574H0Z" class="g0"/>
<path fill-rule="evenodd" d="M115.4,121.9H3525.6v96.3H115.4Z" class="g1"/>
<path fill-rule="evenodd" d="M138.8,214.5H3525.6v77.8H138.8Z" class="g1"/>
<path fill-rule="evenodd" d="M201.6,321.9H3439.3v100H201.6Z" class="g1"/>
<path fill-rule="evenodd" d="M199.2,438.5H1820.8V740.9c0,33.4,-27.1,60.5,-60.5,60.5H138.8q-.1,0,-.1,0l.1,-302.5c0,-33.4,27,-60.4,60.4,-60.4Z" class="g2"/>
<path d="M199.2,438.5H1820.8V740.9c0,33.4,-27.1,60.5,-60.5,60.5H138.8q-.1,0,-.1,0l.1,-302.5c0,-33.4,27,-60.4,60.4,-60.4Z" class="g3"/>
<path d="M166.8,474.9H400.9v35.2H166.8V474.9Z" class="g1"/>
<path d="M166.8,504.6H400.9v2.7H166.8v-2.7Z" class="g4"/>
<path fill-rule="evenodd" d="M1912.4,438.5h1603c0,0,.1,0,.1,0l-.1,302.4c0,33.4,-27,60.5,-60.4,60.5H1851.9V498.9c0,-33.4,27.1,-60.4,60.5,-60.4Z" class="g2"/>
<path d="M1912.4,438.5h1603c0,0,.1,0,.1,0l-.1,302.4c0,33.4,-27,60.5,-60.4,60.5H1851.9V498.9c0,-33.4,27.1,-60.4,60.5,-60.4Z" class="g3"/>
<path d="M1879.9,383.3v35.1V383.3Z" class="g1"/>
<path d="M1879.9,419.9v35.2V419.9Z" class="g1"/>
<path d="M1879.9,456.6h242.7v35.1H1879.9V456.6Z" class="g1"/>
<path d="M1879.9,486.2h242.7V489H1879.9v-2.8Z" class="g4"/>
<path d="M2211.5,493.3H2559v35.1H2211.5V493.3Z" class="g5"/>
<path d="M2211.5,522.9H2559v2.7H2211.5v-2.7Z" class="g6"/>
<path d="M1890.1,529.9h741.3v35.2H1890.1V529.9Z" class="g5"/>
<path d="M1890.1,559.6h741.3v2.7H1890.1v-2.7Z" class="g6"/>
<path fill-rule="evenodd" d="M138.8,819.7H1153.1V2004.8H138.8Z" class="g1"/>
<image clip-path="url(#c0)" preserveAspectRatio="none" x="139" y="820" width="1014" height="1185" xlink:href="img/1.jpg"/>
<path fill-rule="evenodd" d="M2526.5,819.7h988.9V2004.8H2526.5Z" class="g1"/>
<image clip-path="url(#c1)" preserveAspectRatio="none" x="2527" y="820" width="988" height="1185" xlink:href="img/2.jpg"/>
<path fill-rule="evenodd" d="M1069.3,2086.2H2672.4c0,0,0,.1,0,.1v302.4c0,33.4,-27.1,60.5,-60.5,60.5h-1603q-.1,0,-.1,-.1l.1,-302.4c0,-33.4,27,-60.5,60.4,-60.5Z" class="g2"/>
<path d="M1069.3,2086.2H2672.4c0,0,0,.1,0,.1v302.4c0,33.4,-27.1,60.5,-60.5,60.5h-1603q-.1,0,-.1,-.1l.1,-302.4c0,-33.4,27,-60.5,60.4,-60.5Z" class="g3"/>
<path d="M1423.9,2280.8h541.6V2316H1423.9v-35.2Z" class="g5"/>
<path d="M1423.9,2310.5h541.6v2.7H1423.9v-2.7Z" class="g6"/>
<path fill-rule="evenodd" d="M3095.6,663.8h331V801.4h-331Z" class="g1"/>
<image clip-path="url(#c2)" preserveAspectRatio="none" x="3096" y="664" width="331" height="137" xlink:href="img/3.png"/>
<path fill-rule="evenodd" d="M1378.3,850.4H2460.5v989c0,109.3,-88.6,197.9,-197.9,197.9H1180.5V1048.2c0,-109.3,88.6,-197.8,197.8,-197.8Z" class="g2"/>
<path d="M1378.3,850.4H2460.5v989c0,109.3,-88.6,197.9,-197.9,197.9H1180.5V1048.2c0,-109.3,88.6,-197.8,197.8,-197.8Z" class="g3"/>
<path d="M1248.8,923.8h210.5v52.7H1248.8V923.8Z" class="g1"/>
<path d="M1248.8,968.3h210.5v4.1H1248.8v-4.1Z" class="g4"/>
<path d="M1248.8,1858.8h364.3v52.7H1248.8v-52.7Z" class="g5"/>
<path d="M1248.8,1903.3h364.3v4.1H1248.8v-4.1Z" class="g6"/>
<path fill-rule="evenodd" d="M201.6,2095.8H889.1v343.8H201.6Z" class="g1"/>
<image clip-path="url(#c3)" preserveAspectRatio="none" x="202" y="2096" width="687" height="344" xlink:href="img/4.png"/>
<path fill-rule="evenodd" d="M3013.8,218.2h494.7v70.4H3013.8Z" class="g1"/>
<path fill-rule="evenodd" d="M138.8,2014.4h869.7v51.8H138.8Z" class="g1"/>
<path fill-rule="evenodd" d="M2672.4,2008.4h869.8v111H2672.4Z" class="g1"/>
</svg>